<svg width="23" height="23" viewBox="0 0 23 23" fill="none" xmlns="http://www.w3.org/2000/svg">
<path d="M17.7428 4.14214V8.31193C17.7428 8.57587 17.5288 8.78987 17.2649 8.78987C17.2084 8.78987 17.1543 8.78007 17.104 8.7621C16.8975 8.71061 16.6856 8.67078 16.4693 8.64342C16.2528 8.61606 16.0223 8.60194 15.7781 8.60194C15.5134 8.60194 15.2577 8.61992 15.0118 8.65467C14.7548 8.69103 14.5055 8.74459 14.2653 8.81403C14.0117 8.88732 13.7469 8.74294 13.6736 8.4894C13.6598 8.44167 13.6538 8.39355 13.6548 8.34637V4.14214C13.6548 3.8782 13.8688 3.66423 14.1327 3.66423H17.2649C17.5288 3.66423 17.7428 3.8782 17.7428 4.14214Z" fill="white"/>
<path d="M6.65777 22.3062H2.12554C1.86158 22.3062 1.64761 22.0922 1.64761 21.8283V18.6961C1.64761 18.4322 1.86158 18.2182 2.12554 18.2182H6.65777C6.99782 18.2182 7.32123 18.1559 7.61639 18.0427C7.92432 17.9246 8.20056 17.7533 8.43212 17.5415C8.6611 17.3319 8.85131 17.0788 8.98983 16.7945C9.12207 16.5232 9.20451 16.2261 9.22549 15.9147C9.2488 15.5674 9.24462 15.2315 9.23953 14.9036C9.239 14.8982 9.23854 14.8928 9.23817 14.8873L9.23752 14.8759L9.23723 14.8686L9.23706 14.8615C9.23434 14.6894 9.23305 14.5949 9.23075 14.5243C9.22745 14.4228 9.22524 14.3555 9.22524 14.3038C9.22524 13.4126 9.40097 12.5596 9.71887 11.7792C10.0488 10.9694 10.5326 10.2381 11.1326 9.6242C11.7399 9.00277 12.4644 8.50148 13.2679 8.15938C14.0442 7.82884 14.8924 7.64613 15.7781 7.64613C16.668 7.64613 17.5146 7.82855 18.2872 8.15691C19.0917 8.4989 19.8137 9.0001 20.4184 9.61891C21.021 10.2355 21.5048 10.9693 21.8348 11.7779C22.1549 12.5624 22.3309 13.4172 22.3309 14.3038L22.309 20.177C22.309 20.2104 22.3092 20.2536 22.3059 20.3062C22.3045 20.3278 22.302 20.355 22.2983 20.3877C22.2916 20.6458 22.0803 20.853 21.8205 20.853H18.7151C18.4767 20.8543 18.2696 20.6773 18.239 20.4348C18.2323 20.3815 18.2298 20.3372 18.2278 20.3062C18.2245 20.2536 18.2229 20.2104 18.2229 20.177L18.2448 14.3038C18.2448 13.9527 18.1742 13.6159 18.0494 13.3084C17.9198 12.9894 17.7309 12.7015 17.4961 12.4613C17.2717 12.2317 17.0044 12.0461 16.7073 11.9202C16.425 11.8006 16.1117 11.7342 15.7781 11.7342C15.4478 11.7342 15.1341 11.8011 14.8495 11.9221C14.5501 12.0494 14.2804 12.2358 14.0549 12.4667C13.8221 12.7048 13.6339 12.9908 13.5049 13.3097C13.3815 13.6147 13.3133 13.9505 13.3133 14.3038C13.3133 14.3185 13.3116 14.6397 13.311 14.7647C13.312 14.7756 13.3125 14.7866 13.3127 14.7976L13.1178 14.8017L13.1296 14.8015L13.3127 14.7976C13.3202 15.2725 13.3261 15.7603 13.2975 16.1862C13.2407 17.0291 13.0198 17.8297 12.6659 18.5574C12.3011 19.3075 11.7939 19.9808 11.1787 20.5436C10.5706 21.0999 9.85911 21.5467 9.0782 21.8508C8.32391 22.1446 7.50695 22.3062 6.65777 22.3062Z" fill="white"/>
<path d="M4.68049 21.4695C4.68049 21.6014 4.7875 21.7084 4.91947 21.7084C5.05144 21.7084 5.15843 21.6014 5.15843 21.4695V19.0799C5.15843 18.9479 5.05144 18.8409 4.91947 18.8409C4.7875 18.8409 4.68049 18.9479 4.68049 19.0799V21.4695Z" fill="white"/>
<path d="M5.55901 21.4695C5.55901 21.6014 5.666 21.7084 5.79797 21.7084C5.92994 21.7084 6.03695 21.6014 6.03695 21.4695V19.0799C6.03695 18.9479 5.92994 18.8409 5.79797 18.8409C5.666 18.8409 5.55901 18.9479 5.55901 19.0799V21.4695Z" fill="white"/>
<path d="M19.1765 17.4772C19.0446 17.4772 18.9376 17.5842 18.9376 17.7161C18.9376 17.8481 19.0446 17.9551 19.1765 17.9551H21.5662C21.6981 17.9551 21.8051 17.8481 21.8051 17.7161C21.8051 17.5842 21.6981 17.4772 21.5662 17.4772H19.1765Z" fill="white"/>
<path d="M19.1765 18.3557C19.0446 18.3557 18.9376 18.4627 18.9376 18.5947C18.9376 18.7266 19.0446 18.8336 19.1765 18.8336H21.5662C21.6981 18.8336 21.8051 18.7266 21.8051 18.5947C21.8051 18.4627 21.6981 18.3557 21.5662 18.3557H19.1765Z" fill="white"/>
<path d="M18.5585 20.8476V21.5394H22.044V20.8476H18.5585Z" fill="white"/>
<path d="M17.6028 22.0174V20.3698C17.6028 20.1058 17.8167 19.8919 18.0807 19.8919H22.522C22.786 19.8919 23 20.1058 23 20.3698V22.0174C23 22.2813 22.786 22.4953 22.522 22.4953H18.0807C17.8167 22.4953 17.6028 22.2813 17.6028 22.0174Z" fill="white"/>
<path d="M0.955907 22.0174H1.64763V18.5319H0.955907V22.0174Z" fill="white"/>
<path d="M2.12553 22.9732H0.477914C0.213974 22.9732 0 22.7592 0 22.4953V18.0539C0 17.7899 0.213974 17.576 0.477914 17.576H2.12553C2.38947 17.576 2.60345 17.7899 2.60345 18.0539V22.4953C2.60345 22.7592 2.38947 22.9732 2.12553 22.9732Z" fill="white"/>
<path d="M17.9713 0.955782H13.4262V2.48438C13.4262 2.80833 13.559 3.10322 13.7731 3.31729C13.9872 3.53134 14.282 3.66423 14.606 3.66423H16.7915C17.1155 3.66423 17.4103 3.53134 17.6244 3.31729C17.8385 3.10322 17.9713 2.80833 17.9713 2.48438V0.955782Z" fill="white"/>
<path d="M12.9483 0H18.4493C18.7133 0 18.9273 0.213999 18.9273 0.477938V2.48448C18.9273 3.07227 18.6871 3.60633 18.3003 3.99319C17.9134 4.38003 17.3794 4.62018 16.7916 4.62018H14.6061C14.0183 4.62018 13.4842 4.38003 13.0974 3.99319C12.7105 3.60631 12.4704 3.07227 12.4704 2.48448V0.477938C12.4704 0.213999 12.6844 0 12.9483 0Z" fill="white"/>
</svg>
