<svg width="24" height="24" viewBox="0 0 24 24" fill="none" xmlns="http://www.w3.org/2000/svg">
<path fill-rule="evenodd" clip-rule="evenodd" d="M0.750946 2.24991C0.750946 1.42151 1.42249 0.749969 2.25089 0.749969H21.7501C22.5785 0.749969 23.25 1.42152 23.25 2.24991V21.7491C23.25 22.5775 22.5785 23.2491 21.7501 23.2491H2.25088C1.42249 23.2491 0.750946 22.5775 0.750946 21.7491V2.24991Z" stroke="#B0B2C4" stroke-width="1.5" stroke-linecap="round" stroke-linejoin="round"/>
<path d="M12.7505 15.7494H18.7502" stroke="#B0B2C4" stroke-width="1.5" stroke-linecap="round" stroke-linejoin="round"/>
<path d="M5.25076 15.7494H8.25064" stroke="#B0B2C4" stroke-width="1.5" stroke-linecap="round" stroke-linejoin="round"/>
<path fill-rule="evenodd" clip-rule="evenodd" d="M12.7505 15.7494C12.7505 16.9918 11.7433 17.9991 10.5009 17.9993C9.25842 17.9995 8.25101 16.9925 8.25064 15.75C8.25027 14.5076 9.25709 13.5 10.4995 13.4995C11.0964 13.4992 11.669 13.7361 12.0911 14.1581C12.5133 14.58 12.7505 15.1525 12.7505 15.7494V15.7494Z" stroke="#B0B2C4" stroke-width="1.5" stroke-linecap="round" stroke-linejoin="round"/>
<path d="M14.2504 8.24966H5.25076" stroke="#B0B2C4" stroke-width="1.5" stroke-linecap="round" stroke-linejoin="round"/>
<path fill-rule="evenodd" clip-rule="evenodd" d="M18.7502 8.24966C18.7502 7.0072 17.7431 5.99994 16.5006 5.99976C15.2582 5.99957 14.2508 7.00654 14.2504 8.249C14.25 9.49146 15.2568 10.499 16.4993 10.4996C17.7421 10.4996 18.7497 9.49242 18.7502 8.24966Z" stroke="#B0B2C4" stroke-width="1.5" stroke-linecap="round" stroke-linejoin="round"/>
</svg>
