<svg width="15" height="14" viewBox="0 0 15 14" fill="none" xmlns="http://www.w3.org/2000/svg">
<path d="M6.6 6.70833V0.875C6.6 0.642936 6.69482 0.420376 6.8636 0.256281C7.03239 0.0921871 7.26131 0 7.5 0C7.7387 0 7.96761 0.0921871 8.1364 0.256281C8.30518 0.420376 8.4 0.642936 8.4 0.875V6.70833C8.4 6.9404 8.30518 7.16296 8.1364 7.32705C7.96761 7.49115 7.7387 7.58333 7.5 7.58333C7.26131 7.58333 7.03239 7.49115 6.8636 7.32705C6.69482 7.16296 6.6 6.9404 6.6 6.70833ZM11.5913 0.729167C11.3914 0.609532 11.1514 0.570526 10.9224 0.620463C10.6934 0.670401 10.4935 0.805331 10.3654 0.996489C10.2372 1.18765 10.191 1.41991 10.2364 1.64376C10.2819 1.86761 10.4155 2.06534 10.6087 2.19479C12.2557 3.23531 13.2 4.88542 13.2 6.70833C13.2 8.17807 12.5995 9.58762 11.5305 10.6269C10.4616 11.6661 9.01173 12.25 7.5 12.25C5.98827 12.25 4.53845 11.6661 3.46949 10.6269C2.40053 9.58762 1.8 8.17807 1.8 6.70833C1.8 4.88542 2.74425 3.23531 4.39125 2.19115C4.57423 2.05782 4.69814 1.86178 4.73783 1.64284C4.77752 1.4239 4.73 1.19848 4.60493 1.01237C4.47986 0.826262 4.28661 0.693415 4.06444 0.640814C3.84227 0.588214 3.60783 0.619803 3.40875 0.729167C1.242 2.09854 0 4.27948 0 6.70833C0 8.6422 0.790176 10.4969 2.1967 11.8643C3.60322 13.2318 5.51088 14 7.5 14C9.48912 14 11.3968 13.2318 12.8033 11.8643C14.2098 10.4969 15 8.6422 15 6.70833C15 4.27948 13.758 2.09854 11.5913 0.729167Z" fill="#8AE3E1"/>
</svg>
