<svg width="22" height="33" viewBox="0 0 22 33" fill="none" xmlns="http://www.w3.org/2000/svg">
<g clip-path="url(#clip0_39_1661)">
<path d="M16.6386 31.0921H22V3.21065H0V31.0921H1.14024L3.0162 32.9833L14.7465 32.9995L16.6386 31.0921Z" fill="#78D6CF"/>
<path d="M14.2826 32.0546C14.7932 32.0546 15.2072 31.6287 15.2072 31.1034C15.2072 30.578 14.7932 30.1521 14.2826 30.1521C13.7719 30.1521 13.3579 30.578 13.3579 31.1034C13.3579 31.6287 13.7719 32.0546 14.2826 32.0546Z" fill="white"/>
<path d="M3.64438 32.0546C4.15506 32.0546 4.56904 31.6287 4.56904 31.1034C4.56904 30.578 4.15506 30.1521 3.64438 30.1521C3.13371 30.1521 2.71973 30.578 2.71973 31.1034C2.71973 31.6287 3.13371 32.0546 3.64438 32.0546Z" fill="white"/>
<path d="M1.42441 10.5602C1.93509 10.5602 2.34907 10.1343 2.34907 9.60895C2.34907 9.08359 1.93509 8.6577 1.42441 8.6577C0.913739 8.6577 0.499756 9.08359 0.499756 9.60895C0.499756 10.1343 0.913739 10.5602 1.42441 10.5602Z" fill="white"/>
<path d="M20.0213 9.60895C20.532 9.60895 20.946 9.18306 20.946 8.6577C20.946 8.13234 20.532 7.70645 20.0213 7.70645C19.5107 7.70645 19.0967 8.13234 19.0967 8.6577C19.0967 9.18306 19.5107 9.60895 20.0213 9.60895Z" fill="white"/>
<path d="M2.04492 14.7852V23.673H1.50204e-05V14.7852H2.04492Z" fill="#414042"/>
<path d="M22 22.6381V31.1034H20.0217V22.6381H22Z" fill="#414042"/>
<path d="M2.04492 24.756V31.1034H1.64509e-05V24.756H2.04492Z" fill="#414042"/>
<path d="M21.9995 10.5406V21.5591H20.0212V10.5406H21.9995Z" fill="#414042"/>
<path d="M5.16577 3.21114V7.2384H1.42431V3.21114H5.16577Z" fill="#727272"/>
<path d="M5.16577 1.74535V3.21065H1.42431V1.74535H5.16577Z" fill="#414042"/>
<path d="M9.60767 18.1056V31.1034H5.22899V18.1056H9.60767Z" fill="#414042"/>
<path d="M15.6831 9.32646V11.9824H13.1014V9.32646H15.6831Z" fill="#61B8BC"/>
<path d="M18.2642 0V7.23841H13.1012V0H18.2642Z" fill="#E3E4E5"/>
<path d="M10.7029 5.48376V7.23841H7.41875V5.48376H10.7029Z" fill="#61B8BC"/>
<path d="M4.57088 12.214C5.52547 12.214 6.29932 11.4179 6.29932 10.4358C6.29932 9.4538 5.52547 8.6577 4.57088 8.6577C3.61629 8.6577 2.84244 9.4538 2.84244 10.4358C2.84244 11.4179 3.61629 12.214 4.57088 12.214Z" fill="#E3E4E5"/>
<path d="M4.57088 16.2104C5.52547 16.2104 6.29932 15.4143 6.29932 14.4323C6.29932 13.4502 5.52547 12.6541 4.57088 12.6541C3.61629 12.6541 2.84244 13.4502 2.84244 14.4323C2.84244 15.4143 3.61629 16.2104 4.57088 16.2104Z" fill="#E3E4E5"/>
<g opacity="0.9">
<path fill-rule="evenodd" clip-rule="evenodd" d="M15.399 14.0215C12.083 14.0215 10.8485 18.7112 14.225 21.0284C10.7243 23.4273 12.1915 27.9314 15.4038 27.9314C18.616 27.9314 20.1627 23.4513 16.574 21.0284C20.1194 18.7327 18.7155 14.0215 15.399 14.0215ZM15.399 15.2533C17.7913 15.2533 18.5466 18.7317 15.399 20.3498C12.3681 18.6999 13.0062 15.2533 15.399 15.2533ZM15.399 21.7064C18.6089 23.1644 17.7242 26.7373 15.3938 26.7266C13.0633 26.7158 12.3371 23.1218 15.399 21.7064Z" fill="white"/>
<path d="M15.073 16.5605H15.735V18.6245H15.073V16.5605Z" fill="white"/>
<path fill-rule="evenodd" clip-rule="evenodd" d="M15.0831 24.0515V23.3705H15.7865V24.0515H16.4484V24.7751H15.7865V25.4561H15.0831V24.7751H14.4211V24.0515H15.0831Z" fill="white"/>
</g>
</g>
<defs>
<clipPath id="clip0_39_1661">
<rect width="22" height="33" fill="white"/>
</clipPath>
</defs>
</svg>
