<svg width="18" height="18" viewBox="0 0 18 18" fill="none" xmlns="http://www.w3.org/2000/svg">
<g clip-path="url(#clip0_63_2922)">
<mask id="mask0_63_2922" style="mask-type:luminance" maskUnits="userSpaceOnUse" x="3" y="10" width="12" height="7">
<path fill-rule="evenodd" clip-rule="evenodd" d="M3 10.8721H14.8799V16.4026H3V10.8721Z" fill="white"/>
</mask>
<g mask="url(#mask0_63_2922)">
<path fill-rule="evenodd" clip-rule="evenodd" d="M8.94069 11.9971C5.74494 11.9971 4.12494 12.5461 4.12494 13.6298C4.12494 14.7233 5.74494 15.2776 8.94069 15.2776C12.1357 15.2776 13.7549 14.7286 13.7549 13.6448C13.7549 12.5513 12.1357 11.9971 8.94069 11.9971ZM8.94069 16.4026C7.47144 16.4026 2.99994 16.4026 2.99994 13.6298C2.99994 11.1578 6.39069 10.8721 8.94069 10.8721C10.4099 10.8721 14.8799 10.8721 14.8799 13.6448C14.8799 16.1168 11.4899 16.4026 8.94069 16.4026Z" fill="#898D9E"/>
</g>
<mask id="mask1_63_2922" style="mask-type:luminance" maskUnits="userSpaceOnUse" x="4" y="1" width="9" height="9">
<path fill-rule="evenodd" clip-rule="evenodd" d="M4.9574 1.50008H12.9224V9.46403H4.9574V1.50008Z" fill="white"/>
</mask>
<g mask="url(#mask1_63_2922)">
<path fill-rule="evenodd" clip-rule="evenodd" d="M8.94068 2.57078C7.33493 2.57078 6.02843 3.87653 6.02843 5.48228C6.02318 7.08278 7.31993 8.38778 8.91893 8.39378L8.94068 8.92928V8.39378C10.5457 8.39378 11.8514 7.08728 11.8514 5.48228C11.8514 3.87653 10.5457 2.57078 8.94068 2.57078ZM8.94067 9.46403H8.91667C6.72517 9.45728 4.94992 7.67003 4.95742 5.48003C4.95742 3.28628 6.74392 1.49978 8.94067 1.49978C11.1367 1.49978 12.9224 3.28628 12.9224 5.48228C12.9224 7.67828 11.1367 9.46403 8.94067 9.46403Z" fill="#898D9E"/>
</g>
</g>
<defs>
<clipPath id="clip0_63_2922">
<rect width="18" height="18" fill="white"/>
</clipPath>
</defs>
</svg>
