<svg width="20" height="20" viewBox="0 0 20 20" fill="none" xmlns="http://www.w3.org/2000/svg">
<path fill-rule="evenodd" clip-rule="evenodd" d="M8.66705 2.15199C8.96642 2.49018 9.39269 2.68327 9.83995 2.68327C10.2872 2.68327 10.7135 2.49018 11.0128 2.15199L11.776 1.29983C12.2241 0.795054 12.9359 0.63186 13.5534 0.892287C14.171 1.15271 14.5607 1.78042 14.5267 2.45985L14.4694 3.6092C14.447 4.06259 14.614 4.50449 14.9292 4.82572C15.2444 5.14696 15.6784 5.31759 16.1239 5.29545L17.2532 5.23717C17.9204 5.20369 18.5362 5.60073 18.7914 6.22894C19.0466 6.85715 18.8862 7.58084 18.3906 8.03665L17.5501 8.80835C17.2182 9.11344 17.0288 9.54729 17.0288 10.0024C17.0288 10.4576 17.2182 10.8914 17.5501 11.1965L18.3906 11.9682C18.8866 12.4243 19.047 13.1487 18.7911 13.7772C18.5352 14.4057 17.9184 14.8023 17.2508 14.7677L16.1215 14.7094C15.675 14.6861 15.2396 14.8564 14.9235 15.1781C14.6073 15.4999 14.44 15.9429 14.463 16.3973L14.5202 17.5467C14.5498 18.2225 14.1607 18.8449 13.5466 19.104C12.9325 19.363 12.2248 19.2032 11.776 18.7042L11.0169 17.8496C10.7173 17.5119 10.2911 17.3191 9.84398 17.3191C9.39689 17.3191 8.97071 17.5119 8.67109 17.8496L7.90878 18.7042C7.4606 19.2056 6.75165 19.3672 6.13616 19.1082C5.52068 18.8493 5.13078 18.2254 5.16127 17.5483L5.21935 16.399C5.24232 15.9445 5.07497 15.5015 4.75882 15.1798C4.44268 14.858 4.00735 14.6877 3.56084 14.7111L2.4315 14.7694C1.76417 14.8048 1.14713 14.409 0.890671 13.781C0.634209 13.153 0.793827 12.4287 1.28926 11.9723L2.129 11.2006C2.46088 10.8956 2.65028 10.4617 2.65028 10.0065C2.65028 9.5514 2.46088 9.11754 2.129 8.81246L1.28926 8.03665C0.795489 7.58081 0.636107 6.85853 0.890945 6.23159C1.14578 5.60465 1.75996 5.20806 2.42586 5.24045L3.55519 5.29874C4.00257 5.32267 4.43888 5.15214 4.75551 4.82959C5.07213 4.50704 5.23927 4.06283 5.21532 3.60755L5.16127 2.45739C5.13004 1.77998 5.51969 1.15544 6.13535 0.896049C6.75102 0.636661 7.46041 0.798176 7.90878 1.29983L8.66705 2.15199Z" stroke="#B0B2C4" stroke-width="1.5" stroke-linecap="round" stroke-linejoin="round"/>
<path fill-rule="evenodd" clip-rule="evenodd" d="M9.83984 13.6972C11.8446 13.6972 13.4699 12.0432 13.4699 10.0029C13.4699 7.96255 11.8446 6.30854 9.83984 6.30854C7.83504 6.30854 6.20983 7.96255 6.20983 10.0029C6.20983 12.0432 7.83504 13.6972 9.83984 13.6972Z" stroke="#B0B2C4" stroke-width="1.5" stroke-linecap="round" stroke-linejoin="round"/>
</svg>
