<svg width="19" height="18" viewBox="0 0 19 18" fill="none" xmlns="http://www.w3.org/2000/svg">
<path d="M8.25 8.625V1.125C8.25 0.826631 8.36853 0.540483 8.5795 0.329505C8.79048 0.118526 9.07663 0 9.375 0C9.67337 0 9.95952 0.118526 10.1705 0.329505C10.3815 0.540483 10.5 0.826631 10.5 1.125V8.625C10.5 8.92337 10.3815 9.20952 10.1705 9.42049C9.95952 9.63147 9.67337 9.75 9.375 9.75C9.07663 9.75 8.79048 9.63147 8.5795 9.42049C8.36853 9.20952 8.25 8.92337 8.25 8.625ZM14.4891 0.9375C14.2393 0.783684 13.9392 0.733534 13.653 0.797739C13.3667 0.861944 13.1169 1.03543 12.9567 1.2812C12.7965 1.52697 12.7387 1.8256 12.7955 2.1134C12.8524 2.40121 13.0194 2.65543 13.2609 2.82187C15.3197 4.15969 16.5 6.28125 16.5 8.625C16.5 10.5147 15.7493 12.3269 14.4131 13.6631C13.0769 14.9993 11.2647 15.75 9.375 15.75C7.48533 15.75 5.67306 14.9993 4.33686 13.6631C3.00067 12.3269 2.25 10.5147 2.25 8.625C2.25 6.28125 3.43031 4.15969 5.48906 2.81719C5.71778 2.64577 5.87268 2.39371 5.92229 2.11222C5.9719 1.83073 5.9125 1.5409 5.75616 1.30162C5.59982 1.06234 5.35826 0.891534 5.08055 0.823904C4.80283 0.756274 4.50979 0.79689 4.26094 0.9375C1.5525 2.69813 0 5.50219 0 8.625C0 11.1114 0.98772 13.496 2.74587 15.2541C4.50403 17.0123 6.8886 18 9.375 18C11.8614 18 14.246 17.0123 16.0041 15.2541C17.7623 13.496 18.75 11.1114 18.75 8.625C18.75 5.50219 17.1975 2.69813 14.4891 0.9375Z" fill="#96BB76"/>
</svg>
