<svg width="41" height="41" viewBox="0 0 41 41" fill="none" xmlns="http://www.w3.org/2000/svg">
<g clip-path="url(#clip0_32_650)">
<path d="M26.586 13.3402V17.4052C26.586 17.6625 26.3774 17.8711 26.1201 17.8711C26.065 17.8711 26.0123 17.8615 25.9633 17.844C25.7619 17.7938 25.5554 17.755 25.3444 17.7283C25.1334 17.7017 24.9087 17.6879 24.6706 17.6879C24.4126 17.6879 24.1633 17.7054 23.9236 17.7393C23.6731 17.7747 23.4301 17.827 23.1958 17.8946C22.9487 17.9661 22.6905 17.8253 22.619 17.5782C22.6056 17.5316 22.5997 17.4847 22.6007 17.4387V13.3402C22.6007 13.0829 22.8093 12.8743 23.0666 12.8743H26.1201C26.3774 12.8743 26.586 13.0829 26.586 13.3402Z" fill="white"/>
<path d="M15.7795 31.0478H11.3612C11.1039 31.0478 10.8953 30.8391 10.8953 30.5818V27.5284C10.8953 27.2711 11.1039 27.0625 11.3612 27.0625H15.7795C16.111 27.0625 16.4263 27.0018 16.714 26.8914C17.0142 26.7763 17.2835 26.6093 17.5093 26.4028C17.7325 26.1985 17.9179 25.9517 18.053 25.6746C18.1819 25.4101 18.2623 25.1204 18.2827 24.8169C18.3054 24.4783 18.3014 24.1508 18.2964 23.8312C18.2959 23.8259 18.2954 23.8207 18.2951 23.8153L18.2944 23.8042L18.2942 23.7971L18.294 23.7902C18.2913 23.6224 18.2901 23.5302 18.2878 23.4615C18.2846 23.3625 18.2825 23.2969 18.2825 23.2465C18.2825 22.3777 18.4538 21.5461 18.7637 20.7853C19.0853 19.9958 19.557 19.283 20.1419 18.6845C20.7339 18.0786 21.4402 17.59 22.2235 17.2565C22.9803 16.9342 23.8072 16.7561 24.6706 16.7561C25.5382 16.7561 26.3635 16.9339 27.1166 17.254C27.901 17.5874 28.6048 18.076 29.1943 18.6793C29.7818 19.2804 30.2534 19.9957 30.5752 20.7841C30.8872 21.5488 31.0588 22.3822 31.0588 23.2465L31.0374 28.9721C31.0374 29.0047 31.0376 29.0467 31.0344 29.098C31.0331 29.1191 31.0306 29.1456 31.027 29.1774C31.0205 29.4291 30.8144 29.6311 30.5612 29.6311H27.5338C27.3015 29.6323 27.0995 29.4598 27.0697 29.2234C27.0632 29.1714 27.0607 29.1282 27.0588 29.098C27.0556 29.0467 27.054 29.0047 27.054 28.9721L27.0753 23.2465C27.0753 22.9042 27.0066 22.5758 26.8848 22.276C26.7586 21.9651 26.5743 21.6845 26.3455 21.4503C26.1267 21.2264 25.8662 21.0455 25.5765 20.9228C25.3013 20.8062 24.9959 20.7414 24.6706 20.7414C24.3486 20.7414 24.0428 20.8067 23.7654 20.9246C23.4735 21.0488 23.2106 21.2304 22.9907 21.4555C22.7638 21.6876 22.5804 21.9665 22.4546 22.2773C22.3343 22.5746 22.2678 22.902 22.2678 23.2465C22.2678 23.2608 22.2662 23.5739 22.2656 23.6958C22.2665 23.7064 22.2671 23.7171 22.2672 23.7279L22.0772 23.7318L22.0887 23.7317L22.2672 23.7279C22.2745 24.1908 22.2803 24.6664 22.2524 25.0816C22.1971 25.9033 21.9817 26.6838 21.6367 27.3931C21.281 28.1244 20.7865 28.7808 20.1868 29.3294C19.594 29.8718 18.9004 30.3073 18.1391 30.6038C17.4038 30.8902 16.6074 31.0478 15.7795 31.0478Z" fill="white"/>
<path d="M13.8519 30.2321C13.8519 30.3607 13.9563 30.465 14.0849 30.465C14.2136 30.465 14.3179 30.3607 14.3179 30.2321V27.9025C14.3179 27.7739 14.2136 27.6696 14.0849 27.6696C13.9562 27.6696 13.8519 27.7739 13.8519 27.9025V30.2321Z" fill="white"/>
<path d="M14.7084 30.2321C14.7084 30.3607 14.8127 30.465 14.9413 30.465C15.07 30.465 15.1743 30.3607 15.1743 30.2321V27.9025C15.1743 27.7739 15.07 27.6696 14.9413 27.6696C14.8127 27.6696 14.7084 27.7739 14.7084 27.9025V30.2321Z" fill="white"/>
<path d="M27.9837 26.3401C27.8551 26.3401 27.7507 26.4444 27.7507 26.573C27.7507 26.7017 27.8551 26.806 27.9837 26.806H30.3133C30.4419 26.806 30.5462 26.7017 30.5462 26.573C30.5462 26.4444 30.4419 26.3401 30.3133 26.3401H27.9837Z" fill="white"/>
<path d="M27.9837 27.1965C27.8551 27.1965 27.7507 27.3009 27.7507 27.4295C27.7507 27.5581 27.8551 27.6625 27.9837 27.6625H30.3133C30.4419 27.6625 30.5462 27.5581 30.5462 27.4295C30.5462 27.3009 30.4419 27.1965 30.3133 27.1965H27.9837Z" fill="white"/>
<path d="M27.3812 29.6259V30.3003H30.7791V29.6259H27.3812Z" fill="white"/>
<path d="M26.4495 30.7662V29.16C26.4495 28.9027 26.6581 28.6941 26.9154 28.6941H31.2451C31.5024 28.6941 31.711 28.9027 31.711 29.16V30.7662C31.711 31.0235 31.5024 31.2321 31.2451 31.2321H26.9154C26.6581 31.2321 26.4495 31.0235 26.4495 30.7662Z" fill="white"/>
<path d="M10.2209 30.7662H10.8953V27.3683H10.2209V30.7662Z" fill="white"/>
<path d="M11.3612 31.698H9.75497C9.49766 31.698 9.28906 31.4894 9.28906 31.2321V26.9023C9.28906 26.645 9.49766 26.4364 9.75497 26.4364H11.3612C11.6185 26.4364 11.8271 26.645 11.8271 26.9023V31.2321C11.8271 31.4894 11.6185 31.698 11.3612 31.698Z" fill="white"/>
<path d="M26.8088 10.2339H22.3778V11.7241C22.3778 12.0399 22.5074 12.3274 22.716 12.536C22.9247 12.7447 23.2122 12.8743 23.528 12.8743H25.6586C25.9744 12.8743 26.2619 12.7447 26.4705 12.536C26.6792 12.3274 26.8088 12.0399 26.8088 11.7241V10.2339Z" fill="white"/>
<path d="M21.912 9.30212H27.2748C27.5321 9.30212 27.7407 9.51074 27.7407 9.76805V11.7242C27.7407 12.2972 27.5066 12.8178 27.1294 13.195C26.7523 13.5721 26.2317 13.8062 25.6587 13.8062H23.5281C22.9551 13.8062 22.4344 13.5721 22.0573 13.195C21.6802 12.8178 21.446 12.2972 21.446 11.7242V9.76805C21.446 9.51074 21.6547 9.30212 21.912 9.30212Z" fill="white"/>
</g>
<defs>
<clipPath id="clip0_32_650">
<rect width="41" height="41" fill="white"/>
</clipPath>
</defs>
</svg>
