<svg width="32" height="32" viewBox="0 0 32 32" fill="none" xmlns="http://www.w3.org/2000/svg">
<path d="M2.40002 12.8701C3.33336 11.9367 6.08002 10.0701 9.60002 10.0701C14 10.0701 18 12.8701 20.4 10.0701C22.5646 7.54475 20.8 5.2701 19.2 4.87007C17.9729 4.56327 16.4 5.27009 16.4 6.87008C16.4 8.47006 18 8.47009 18.4 8.07009M2.80002 17.2701C3.60002 16.6034 6.08002 15.2701 9.60002 15.2701C14 15.2701 16.8 17.2701 19.2 18.0701C22.4 19.1368 26.8 19.2701 28.4 15.6701C30 12.0701 27.7123 10.0476 25.6 10.4701C23.6 10.8701 23.6 14.0701 26 13.6701M2.40002 22.4701C3.60002 21.2701 5.35476 19.9508 7.60002 19.6701C10.4 19.3201 13.1604 20.0305 15.2 22.0701C16.4 23.2701 17.0659 25.8707 15.2 27.2701C13.6 28.4701 11.6 26.8701 11.6 25.6701C11.6 24.7101 12.4 24.0701 13.2 24.0701" stroke="#96935C" stroke-width="1.5" stroke-linecap="round" stroke-linejoin="round"/>
</svg>
