<svg width="20" height="20" viewBox="0 0 20 20" fill="none" xmlns="http://www.w3.org/2000/svg">
<path fill-rule="evenodd" clip-rule="evenodd" d="M8.66703 2.15204C8.96639 2.49024 9.39266 2.68332 9.83992 2.68332C10.2872 2.68332 10.7134 2.49024 11.0128 2.15204L11.7759 1.29989C12.2241 0.795114 12.9358 0.63192 13.5534 0.892347C14.1709 1.15277 14.5606 1.78048 14.5266 2.4599L14.4694 3.60925C14.447 4.06264 14.614 4.50454 14.9292 4.82577C15.2444 5.14701 15.6783 5.31763 16.1238 5.2955L17.2532 5.23721C17.9203 5.20374 18.5361 5.60078 18.7913 6.22898C19.0466 6.85719 18.8861 7.58087 18.3906 8.03669L17.55 8.80839C17.2182 9.11347 17.0288 9.54733 17.0288 10.0025C17.0288 10.4576 17.2182 10.8915 17.55 11.1966L18.3906 11.9683C18.8866 12.4244 19.0469 13.1487 18.791 13.7772C18.5351 14.4057 17.9184 14.8023 17.2508 14.7677L16.1214 14.7094C15.6749 14.6861 15.2396 14.8564 14.9234 15.1781C14.6073 15.4999 14.44 15.9429 14.4629 16.3973L14.5202 17.5467C14.5498 18.2225 14.1606 18.845 13.5466 19.104C12.9325 19.363 12.2248 19.2032 11.7759 18.7042L11.0168 17.8496C10.7172 17.5119 10.291 17.3192 9.84395 17.3192C9.39686 17.3192 8.97068 17.5119 8.67106 17.8496L7.90876 18.7042C7.46057 19.2056 6.75163 19.3672 6.13615 19.1082C5.52066 18.8493 5.13076 18.2254 5.16125 17.5483L5.21933 16.399C5.2423 15.9446 5.07496 15.5015 4.75881 15.1798C4.44266 14.858 4.00734 14.6877 3.56083 14.7111L2.4315 14.7694C1.76417 14.8048 1.14713 14.409 0.890669 13.781C0.634207 13.153 0.793825 12.4287 1.28926 11.9724L2.129 11.2007C2.46088 10.8956 2.65028 10.4617 2.65028 10.0066C2.65028 9.55143 2.46088 9.11758 2.129 8.81249L1.28926 8.03669C0.795487 7.58085 0.636105 6.85857 0.890943 6.23164C1.14578 5.6047 1.75996 5.2081 2.42585 5.2405L3.55518 5.29878C4.00255 5.32272 4.43887 5.15219 4.75549 4.82964C5.07211 4.50709 5.23926 4.06288 5.2153 3.60761L5.16125 2.45744C5.13003 1.78004 5.51967 1.1555 6.13533 0.896109C6.751 0.636722 7.46039 0.798236 7.90876 1.29989L8.66703 2.15204Z" stroke="white" stroke-width="1.5" stroke-linecap="round" stroke-linejoin="round"/>
<path fill-rule="evenodd" clip-rule="evenodd" d="M9.83981 13.6973C11.8446 13.6973 13.4698 12.0433 13.4698 10.003C13.4698 7.96265 11.8446 6.30865 9.83981 6.30865C7.83502 6.30865 6.20981 7.96265 6.20981 10.003C6.20981 12.0433 7.83502 13.6973 9.83981 13.6973Z" stroke="white" stroke-width="1.5" stroke-linecap="round" stroke-linejoin="round"/>
</svg>
