<svg width="162" height="260" viewBox="0 0 162 260" fill="none" xmlns="http://www.w3.org/2000/svg">
<g clip-path="url(#clip0_63_2055)">
<path d="M87.5247 259.991C118.833 259.991 144.214 256.409 144.214 251.99C144.214 247.572 118.833 243.99 87.5247 243.99C56.2161 243.99 30.8354 247.572 30.8354 251.99C30.8354 256.409 56.2161 259.991 87.5247 259.991Z" fill="#96BB76"/>
<path d="M122.333 114.462L127.379 113.573" stroke="#EEC1C1" stroke-linecap="round" stroke-linejoin="round"/>
<path d="M0.926025 53.2353L7.42649 58.1616C8.29692 58.819 9.55627 58.3838 9.82481 57.3282L14.677 38.4842" stroke="#58C6CD" stroke-width="2" stroke-linecap="round" stroke-linejoin="round"/>
<path d="M141.556 76.9777L143.482 84.7838C143.705 85.7005 144.788 86.0895 145.547 85.5339L160.604 74.5794" stroke="#EF8B8B" stroke-width="2" stroke-linecap="round" stroke-linejoin="round"/>
<path d="M16.1124 107.971C19.3811 103.757 18.7052 97.7662 14.6123 94.5901L2.78735 109.869C6.88024 113.045 12.8529 112.193 16.1124 107.98V107.971Z" fill="#EEC1C1"/>
<path d="M10.5748 185.226C14.3066 186.939 18.6865 185.393 20.3533 181.772L6.83381 175.559C5.16703 179.179 6.84307 183.513 10.5748 185.226Z" fill="#A1A3F6"/>
<path d="M43.0957 67.8937C46.3994 67.8937 49.0776 65.2155 49.0776 61.9118C49.0776 58.6081 46.3994 55.9299 43.0957 55.9299C39.792 55.9299 37.1138 58.6081 37.1138 61.9118C37.1138 65.2155 39.792 67.8937 43.0957 67.8937Z" fill="#F2D382"/>
<path d="M135.63 217.117C140.018 217.117 143.575 213.56 143.575 209.172C143.575 204.784 140.018 201.227 135.63 201.227C131.242 201.227 127.685 204.784 127.685 209.172C127.685 213.56 131.242 217.117 135.63 217.117Z" fill="#58C6CD"/>
<path fill-rule="evenodd" clip-rule="evenodd" d="M146.936 157.613C145.538 154.335 141.519 152.9 137.964 154.418L136.482 150.946C142.121 148.538 148.501 150.807 150.714 156.011C152.928 161.215 150.15 167.373 144.51 169.781L143.029 166.308C146.585 164.79 148.344 160.9 146.946 157.622L146.936 157.613Z" fill="#A1A3F6"/>
<path fill-rule="evenodd" clip-rule="evenodd" d="M136.519 42.7901C132.463 46.9108 132.806 53.8279 137.278 58.2356L132.982 62.6063C125.879 55.6243 125.342 44.6606 131.778 38.1231C138.213 31.5856 149.177 31.9375 156.28 38.9194L151.983 43.2901C147.501 38.8824 140.584 38.6602 136.528 42.7808L136.519 42.7901Z" fill="#C9EBED"/>
<path d="M99.1274 5.85227L101.692 10.047C101.989 10.5378 102.693 10.5656 103.035 10.1026L109.786 0.925995" stroke="#A6D0EE" stroke-width="2" stroke-linecap="round" stroke-linejoin="round"/>
</g>
<defs>
<clipPath id="clip0_63_2055">
<rect width="161.53" height="260" fill="white"/>
</clipPath>
</defs>
</svg>
