<svg width="214" height="32" viewBox="0 0 214 32" fill="none" xmlns="http://www.w3.org/2000/svg">
<path d="M11.1583 22.6186V20.1725C11.1583 19.548 11.6593 19.0418 12.2774 19.0418H14.5367C14.8335 19.0418 15.1181 19.1609 15.328 19.373C15.5379 19.585 15.6558 19.8726 15.6558 20.1725V22.6186C15.6539 22.8783 15.7547 23.1279 15.9357 23.3121C16.1167 23.4964 16.3631 23.6 16.62 23.6H18.1614C18.8813 23.6019 19.5724 23.3142 20.0821 22.8006C20.5918 22.287 20.8782 21.5896 20.8782 20.8622V13.8935C20.8782 13.3059 20.6204 12.7486 20.1744 12.3717L14.9308 8.14067C14.0187 7.39882 12.7118 7.42278 11.8269 8.19756L6.70301 12.3717C6.23587 12.7375 5.95667 13.2965 5.94287 13.8935V20.8551C5.94287 22.3711 7.15922 23.6 8.65967 23.6H10.1659C10.6996 23.6 11.1333 23.1649 11.1372 22.6258L11.1583 22.6186Z" fill="#B0B2C4"/>
<path fill-rule="evenodd" clip-rule="evenodd" d="M92.904 26.67C96.7846 26.67 99.9304 23.4343 99.9304 19.4429C99.9304 15.4515 96.7846 12.2158 92.904 12.2158C89.0235 12.2158 85.8777 15.4515 85.8777 19.4429C85.8777 23.4343 89.0235 26.67 92.904 26.67Z" stroke="#B0B2C4" stroke-width="1.5" stroke-linecap="round" stroke-linejoin="round"/>
<path d="M97.5884 14.0226L99.0522 12.517" stroke="#B0B2C4" stroke-width="1.5" stroke-linecap="round" stroke-linejoin="round"/>
<path d="M98.7593 12.2158L99.3448 12.8181" stroke="#B0B2C4" stroke-width="1.5" stroke-linecap="round" stroke-linejoin="round"/>
<path d="M92.9041 12.2158V8.60229" stroke="#B0B2C4" stroke-width="1.5" stroke-linecap="round" stroke-linejoin="round"/>
<path d="M94.6606 8.60229H91.1475" stroke="#B0B2C4" stroke-width="1.5" stroke-linecap="round" stroke-linejoin="round"/>
<path d="M92.9042 20.0452L89.9766 16.7119" stroke="#B0B2C4" stroke-width="1.5" stroke-linecap="round" stroke-linejoin="round"/>
<path d="M166.238 25.2L169.618 19.3773C169.738 19.1708 169.901 19.0549 170.07 19.0549C170.24 19.0549 170.402 19.1708 170.522 19.3773L172.173 22.2212C172.293 22.4276 172.455 22.5436 172.625 22.5436C172.794 22.5436 172.957 22.4276 173.077 22.2212L177.243 15.2" stroke="#B0B2C4" stroke-width="1.5" stroke-linecap="round" stroke-linejoin="round"/>
<path d="M174.098 15.6L177.635 14.4L178.422 18" stroke="#B0B2C4" stroke-width="1.5" stroke-linecap="round" stroke-linejoin="round"/>
<path fill-rule="evenodd" clip-rule="evenodd" d="M163.68 12.1C163.68 11.2715 164.351 10.6 165.18 10.6H179.866C180.695 10.6 181.366 11.2715 181.366 12.1V27.1C181.366 27.9284 180.695 28.6 179.866 28.6H165.18C164.351 28.6 163.68 27.9284 163.68 27.1V12.1Z" stroke="#B0B2C4" stroke-width="1.5" stroke-linecap="round" stroke-linejoin="round"/>
</svg>
